# xmcd CD database file
#
# Track frame offsets:
#	150
#	49637
#	117867
#	173662
#
# Disc length: 3338 seconds
#
# Revision: 0
# Processed by: cddbd v1.4PL0 Copyright (c) Steve Scherf et al.
# Submitted via: CDex 1.50beta8
#
DISCID=280d0804
DTITLE=Mrinal Sen Gupta - improvisations Instrumental and Dance Music of India
DYEAR=1900
DGENRE=Country
TTITLE0=RAG MISRA MAND - DHUN
TTITLE1=KATHAK DANCE
TTITLE2=RUPAK TAL
TTITLE3=RAG HEMANT
EXTD=
EXTT0=
EXTT1=
EXTT2=
EXTT3=
PLAYORDER=
